inDegrees=no
num_controls=7
num_derivatives=13
num_iterations=164
num_multipliers=7
num_parameters=0
num_slacks=7
num_states=26
objective=0.509722
objective_accelerations=0.040310
objective_balance=0.003520
objective_effort=0.029471
objective_height=0.323701
objective_ligament=0.112721
solver_duration=2458.931848
status=Solve_Succeeded
success=true
DataType=double
version=3
OpenSimVersion=4.5
endheader
time	/jointset/ground_pelvis/pelvis_tilt/value	/jointset/ground_pelvis/pelvis_tx/value	/jointset/ground_pelvis/pelvis_ty/value	/jointset/hip_l/hip_flexion_l/value	/jointset/hip_l/hip_adduction_l/value	/jointset/hip_l/hip_rotation_l/value	/jointset/back/lumbar_extension/value	/jointset/patellofemoral_l/patellar_flexion_l/value	/jointset/knee_l/knee_flexion_l/value	/jointset/knee_l/knee_adduction_l/value	/jointset/knee_l/knee_rotation_l/value	/jointset/ankle_l/ankle_angle_l/value	/jointset/subtalar_l/subtalar_angle_l/value	/jointset/ground_pelvis/pelvis_tilt/speed	/jointset/ground_pelvis/pelvis_tx/speed	/jointset/ground_pelvis/pelvis_ty/speed	/jointset/hip_l/hip_flexion_l/speed	/jointset/hip_l/hip_adduction_l/speed	/jointset/hip_l/hip_rotation_l/speed	/jointset/back/lumbar_extension/speed	/jointset/patellofemoral_l/patellar_flexion_l/speed	/jointset/knee_l/knee_flexion_l/speed	/jointset/knee_l/knee_adduction_l/speed	/jointset/knee_l/knee_rotation_l/speed	/jointset/ankle_l/ankle_angle_l/speed	/jointset/subtalar_l/subtalar_angle_l/speed	/forceset/tau_hip_flexion_l	/forceset/tau_hip_adduction_l	/forceset/tau_hip_rotation_l	/forceset/tau_knee_flexion_l	/forceset/tau_ankle_angle_l	/forceset/tau_subtalar_angle_l	/forceset/tau_lumbar_extension	lambda_cid13_p0	lambda_cid13_p1	lambda_cid13_p2	lambda_cid13_p3	lambda_cid13_p4	lambda_cid13_p5	lambda_cid14_p0	/jointset/ground_pelvis/pelvis_tilt/accel	/jointset/ground_pelvis/pelvis_tx/accel	/jointset/ground_pelvis/pelvis_ty/accel	/jointset/hip_l/hip_flexion_l/accel	/jointset/hip_l/hip_adduction_l/accel	/jointset/hip_l/hip_rotation_l/accel	/jointset/back/lumbar_extension/accel	/jointset/patellofemoral_l/patellar_flexion_l/accel	/jointset/knee_l/knee_flexion_l/accel	/jointset/knee_l/knee_adduction_l/accel	/jointset/knee_l/knee_rotation_l/accel	/jointset/ankle_l/ankle_angle_l/accel	/jointset/subtalar_l/subtalar_angle_l/accel	gamma_cid13_p0	gamma_cid13_p1	gamma_cid13_p2	gamma_cid13_p3	gamma_cid13_p4	gamma_cid13_p5	gamma_cid14_p0
0.5	-0.1139340579445664	-0.0496662790387017	0.8287693530459027	0.8727894521340324	-0.3110654137283416	-0.1398363133338536	-0.778978997033301	0.7817933718108174	0.781793371810766	-0.07719417208029489	-0.1720104177543121	0.08255053153372019	0.01116269864817832	-0.2232363880646704	-0.1631539773625718	-0.3445631896816796	1.495220355474707	-0.1109021004329008	0.5498002683376116	-0.8639568967827566	1.534500018532092	1.534500018532173	-0.01100863030419104	0.01483409716035339	0.3308708417820417	-0.01101123312100491	-0.2778301140915655	0.05731414514128105	-0.007490118471661666	-0.1980592711925062	0.1053507737732394	0.02307047983138865	0.3255691806088214	-10.80397280946772	-8.930911501343603	1.886856929078281	-8.509826795568937	-694.8567535269003	-49.49105763326646	-15.07941315357862	0.4118481364731025	0.6429353441816514	-0.2272857841427249	-1.079727506409427	0.4158062129690801	-0.0377605120068378	1.609586157147458	-0.4768263941099259	-0.4768263941098895	-0.05288615471982362	-0.007692924483882089	0.3264776375730793	0.545770735031718	-1.745587179601116e-07	-4.337508796744598e-07	7.057153493122862e-07	2.160117519615326e-08	-1.738327058325591e-07	-9.399279538449791e-08	-1.550648589741949e-07
0.51	-0.1161456526277172	-0.05126560340816028	0.8253131889076345	0.8876847935520459	-0.3121542431753373	-0.1343411665377013	-0.787536906653153	0.7971109743898318	0.7971109743896821	-0.07730850105861854	-0.1718632072320017	0.08587409576300452	0.01107875435469906	-0.2190663911552242	-0.1567052635268015	-0.3465861360561304	1.483593255403963	-0.1068577540197718	0.5491022224500179	-0.8475024040039668	1.528698560004996	1.528698560004995	-0.01185774591655713	0.01458025934151917	0.3337315435740929	-0.005803688870225665	-0.2849560370762063	0.05807988507744813	-0.007513582874727615	-0.2000982865688824	0.1035829214938684	0.02354117816790028	0.33234465165588	-11.61859787711602	-8.939790019520958	1.827835164078777	-8.180095870819068	-699.2707654952163	-49.31994944814099	-14.51274337402103	0.4219814725984978	0.6466890121988158	-0.1773079090686731	-1.242423348261744	0.3996111353342927	-0.1050007456398104	1.681774315872832	-0.6800654322293077	-0.6800654322415932	-0.10106150185575	-0.03824646037039579	0.2492796707242481	0.5043214428323518	-1.732247309419688e-07	-3.99855217909453e-07	7.059303300419153e-07	2.676550397632072e-08	-1.699839378924348e-07	-7.694452520504564e-08	-1.517485028193182e-07
0.52	-0.118315066140889	-0.05280027071747639	0.8218392935366271	0.9024562195511826	-0.3132024567022251	-0.1288568350241331	-0.7959265926496918	0.8123609104135266	0.8123609104132882	-0.07743134864053312	-0.1717193385378412	0.08922294965435017	0.01104610053827402	-0.2148001540690487	-0.1502225653340759	-0.3481094362294977	1.470437271699024	-0.1027789164126668	0.5476372118222552	-0.8303121721200505	1.520966707469104	1.520966707469021	-0.01271235102334925	0.01416573153119731	0.3359287741942682	-0.0007531377101932149	-0.2920819600608475	0.05884562501361415	-0.007537047277711748	-0.2021373019452609	0.1018150692144964	0.02401187650440918	0.339120122702939	-12.43261898229118	-8.950089119663058	1.770542450664381	-7.903199178084919	-703.712176863005	-49.18539490146512	-13.9401604599918	0.4310961718190076	0.6497322155727289	-0.1273565439260535	-1.385504233248442	0.4227044517642501	-0.1911534600406674	1.756733978172843	-0.8629051958691218	-0.8629051958691909	-0.05398405360500039	-0.03983092278139242	0.1937834031978996	0.5143721168823761	-1.720596483257911e-07	-3.624330755533975e-07	7.055465415612178e-07	3.378177984630593e-08	-1.686143791590156e-07	-5.843053063543442e-08	-1.478098110690436e-07
0.53	-0.1204415401097261	-0.05427001124060046	0.818352822627847	0.9170881895107401	-0.3142098554175978	-0.1233910246960523	-0.8041406988321557	0.8275231598806853	0.8275231598808001	-0.07756313013371935	-0.1715804226618274	0.09259009071142796	0.01106287582104605	-0.2105002452472909	-0.1437269865771259	-0.3490847772478843	1.455674811078469	-0.09871436171159693	0.5453825935814604	-0.8123859592025877	1.511086891854933	1.511086891854885	-0.0136828987828381	0.0135774788309237	0.3373500421177287	0.004046928406656292	-0.2991246927651355	0.05950805093100554	-0.00755427472715661	-0.2046562742793953	0.1002240835329736	0.02435186086012223	0.3459010266497621	-13.23611410352671	-8.900189545290841	1.697629050559202	-7.477948732888169	-708.6968983131046	-49.0282743521572	-13.36261664285863	0.4285798508764542	0.6492611062242278	-0.06766121799060824	-1.563924702279349	0.3962482301974536	-0.26409017785393	1.829030724122458	-1.109934712032535	-1.109934712027301	-0.1244729703425211	-0.07417326654536086	0.0938737107844432	0.4536067820638786	-1.700789496016854e-07	-3.189726579054985e-07	7.055829993028559e-07	4.06543021515654e-08	-1.63970902076199e-07	-3.965460671529139e-08	-1.432741171364415e-07
0.54	-0.1225251866676399	-0.05567483789606147	0.8148595906414438	0.9315640733189299	-0.3151770251357692	-0.1179520553847373	-0.8121718497303272	0.8425747281981254	0.8425747281986107	-0.07770579367114118	-0.1714485594773992	0.09596695949251348	0.0111258083495823	-0.2062346718846385	-0.1372397918014619	-0.3494616517541169	1.439220041425103	-0.09473311697376753	0.5422690084704624	-0.7937211152615437	1.498830477527104	1.49883047752709	-0.01488875987119061	0.01275519321484982	0.3378743189957619	0.008478311442611599	-0.306167425469422	0.06017047684839886	-0.007571502176526957	-0.207175246613531	0.0986330978514508	0.0246918452158363	0.3526819305965865	-14.04010676606982	-8.85154057277374	1.626443860127882	-7.099802999749525	-713.7223365316804	-48.90785066693743	-12.78138622539331	0.4242290799979421	0.6480554193155462	-0.007663241495288856	-1.723966039810407	0.4060424591161515	-0.3629468340812811	1.904460182889185	-1.338224938600857	-1.33822493860087	-0.1010467193777019	-0.08663750594143069	0.01438519411246166	0.4406355007035531	-1.671958670985953e-07	-2.688315952538576e-07	7.060844103117591e-07	4.736777795968152e-08	-1.557052174578788e-07	-2.058888862009189e-08	-1.380779101510515e-07
0.55	-0.1245664670244371	-0.05701492143240161	0.8113656664693436	0.9458669847020524	-0.3161048645228547	-0.1125484035692261	-0.8200128249412462	0.8574916669454198	0.8574916669456231	-0.07786180236003265	-0.1713260001304759	0.09934446799084737	0.01123108864017441	-0.2020389141308513	-0.1307868864951469	-0.3492140324055135	1.421077799980365	-0.09086134706142689	0.5383136879212447	-0.7743678857922676	1.484136003578046	1.484136003578053	-0.01636651732091504	0.01170938309639117	0.337461750711018	0.01249573590513116	-0.3129675963683591	0.06069499750907723	-0.007574836609512171	-0.2099804801827847	0.09707396182660127	0.02493952428451052	0.3592388960400467	-14.8538225428201	-8.757841138559934	1.54435200951064	-6.570207398759064	-718.9080820987753	-48.7725948402054	-12.19794955553719	0.4146042464829092	0.6424226379382947	0.05731682277581956	-1.902039913078145	0.3736908409035879	-0.4340972440850576	1.966660498510091	-1.598221827403153	-1.598221827399983	-0.1791963358988864	-0.120503872921885	-0.09393453742061515	0.369950894189774	-1.589736527017059e-07	-2.235844046721119e-07	6.872580051092691e-07	4.853208444206889e-08	-1.401263408761894e-07	-5.268360987667896e-09	-1.305541930991494e-07
0.5600000000000001	-0.1265663187790121	-0.05829077300534889	0.8078774869506768	0.9599799363274752	-0.3169947968940879	-0.1071887594749623	-0.8276570866235599	0.8722490283123537	0.8722490283122775	-0.07803419983904357	-0.171215289106368	0.1027128794668035	0.01137407417042467	-0.1979489514405097	-0.1243933991228894	-0.3483127210674238	1.401228089884719	-0.08715171380466846	0.5334674642223041	-0.7543784095404589	1.466915001455192	1.466915001455221	-0.01816651789579837	0.0103855286529807	0.3360549145201623	0.0160193593741954	-0.3197677672672946	0.06121951816975919	-0.007578171042420733	-0.2127857137520402	0.09551482580175195	0.02518720335318763	0.3657958614835081	-15.66953853155845	-8.665275755001236	1.46413727235215	-6.07970013565767	-724.1519919960207	-48.67433647642016	-11.61401345958101	0.403070067308847	0.6361718325040616	0.1230751564019729	-2.065459769992238	0.3736151279997126	-0.5411274640258639	2.031709539395761	-1.843530573359971	-1.843530573359938	-0.1654953444094503	-0.1422463709317812	-0.1844683871098617	0.341875302012504	-1.443444800322575e-07	-1.842098605742401e-07	6.452382204531079e-07	4.303738773358198e-08	-1.157716339384573e-07	5.557938089425653e-09	-1.202374639674327e-07
0.5700000000000001	-0.1285256891272692	-0.05950302681653247	0.8044014906656897	0.9738864144009239	-0.3178482950257131	-0.1018817296434934	-0.8350984517875637	0.8868225724965997	0.8868225724964099	-0.07822565359791267	-0.1711189373040505	0.106062786545691	0.01155016969254699	-0.1939267370187289	-0.1180708426727846	-0.3467857622545062	1.37982274257181	-0.08356831669286637	0.5278173354115486	-0.7338122811354182	1.447461282069511	1.447461282069536	-0.02014257676926411	0.008856954660711453	0.3338063222637414	0.01913986560992139	-0.3262916948031325	0.06165649548334312	-0.00755733841573798	-0.2153285031903268	0.09372461072615121	0.02537057644568728	0.3719876553825588	-16.52972575995537	-8.538123636085917	1.379696014022819	-5.549701707852395	-728.8903925089472	-48.49997453772734	-11.03130469363831	0.4015383420665238	0.6282836032713445	0.1826018960240377	-2.21480815387947	0.3475760536850961	-0.5952310661828252	2.081415809855688	-2.04615273952043	-2.046152739521116	-0.2164274940784792	-0.1622194004668436	-0.2630896742215981	0.2881099881985088	-1.299859626683035e-07	-1.467249789575614e-07	6.012136188921738e-07	3.847507331269318e-08	-9.444130924323647e-08	1.573667891578099e-08	-1.096877046444659e-07
0.58	-0.1304448890888164	-0.06065245785281354	0.8009437830992892	0.9875714918128579	-0.3186665843760307	-0.09663485619545471	-0.8423316854037578	0.9011916074633191	0.9011916074630166	-0.07843742121256755	-0.1710386825390787	0.1093866006961518	0.01175566461779601	-0.1899148740987935	-0.1118288441423841	-0.3446549773501151	1.35694795758133	-0.08010995754448424	0.5214361875374944	-0.712752099978479	1.426013157949899	1.426013157949917	-0.02222928905325956	0.007166121184748448	0.3308363288347847	0.02189923999948167	-0.3328156223389679	0.06209347279693218	-0.007536505788993067	-0.2178712926286142	0.09193439565055141	0.02555394953819204	0.3781794492816109	-17.3941902157085	-8.411856678573329	1.297263122301369	-5.046856585432767	-733.7140890244455	-48.36224240610417	-10.45171437098363	0.4009997669397865	0.6200602485632152	0.2438403746966885	-2.359347305506351	0.3486075353157241	-0.6873312766856503	2.130520089775466	-2.242411520146363	-2.242411520146575	-0.1876260265153614	-0.1746982676705262	-0.3287486216170208	0.2696489327793729	-1.159799266324354e-07	-1.117010531303435e-07	5.545780929901406e-07	3.512702419658332e-08	-7.704971491035611e-08	2.507208806675623e-08	-9.883446414219665e-08
0.59	-0.132323973777548	-0.06173990385349963	0.7975103409263111	1.001020837651635	-0.319450803170601	-0.09145528909671777	-0.8493519685851539	0.9153368180722667	0.9153368180720839	-0.0786702194445696	-0.170975951493532	0.112677445342911	0.01198718261767828	-0.1858952998776767	-0.1056765954189154	-0.3419379171204615	1.332701041746468	-0.07675222912287707	0.5143714816746691	-0.6912383734077437	1.402750474220814	1.402750474220739	-0.02433007393101785	0.005364189423633931	0.3272402614371713	0.0243558180518536	-0.3390618382311797	0.06242925097456234	-0.007493404138887379	-0.2202505134975955	0.0900149997140013	0.02568420007631017	0.3840418685769366	-18.27793052953242	-8.259875729003165	1.211566386826048	-4.513475081236318	-738.1487684450303	-48.1771114235156	-9.877157740389128	0.4034372188698591	0.610377903724759	0.2999564937159534	-2.490404446243808	0.3265297525235123	-0.7319814741289138	2.171723374732606	-2.409951746943326	-2.409951746957182	-0.2212684071123049	-0.1852196200227373	-0.388891358305567	0.2263341437249908	-1.018609862557305e-07	-7.841012446953585e-08	5.057444279753292e-07	3.16591041034607e-08	-6.051085507037369e-08	3.30142964400033e-08	-8.779349848089329e-08
